# xmcd
#
# Track frame offsets:
#	150
#	18364
#	39572
#	49505
#	68104
#	84516
#	101302
#	115986
#	131957
#
# Disc length: 1929 seconds
#
# Revision: 0
# Processed by: cddbd v1.5.2PL0 Copyright (c) Steve Scherf et al.
# Submitted via: EasyCDDAExtractor 15.3.0.1
#
DISCID=70078709
DTITLE=A legszebb karácsonyi dalok - 5
DYEAR=2015
DGENRE=Blues
TTITLE0=Csendes éj Álmodó éj
TTITLE1=Széll beszél súgja néked
TTITLE2=Óh zöld fenyő
TTITLE3=Fehér hegyek kőzt
TTITLE4=Ave Maria
TTITLE5=Lessz-e néked ünneped
TTITLE6=Csilingelő aranydoboz
TTITLE7=Itt van már karácsony
TTITLE8=Karácsony este
EXTD=
EXTT0=
EXTT1=
EXTT2=
EXTT3=
EXTT4=
EXTT5=
EXTT6=
EXTT7=
EXTT8=
PLAYORDER=
